<svg xmlns="http://www.w3.org/2000/svg" xmlns:xlink="http://www.w3.org/1999/xlink" width="16" height="16"><defs><path id="a" d="M677.35 1472.47c.45 0 .82-.38.82-.82a.83.83 0 0 0-.82-.82.83.83 0 0 0-.82.82c0 .44.38.82.82.82zm-4.39.96c1.42 0 2.6 1.2 2.6 2.6a2.54 2.54 0 0 1-2.6 2.61 2.64 2.64 0 0 1-2.6-2.6c0-1.42 1.19-2.6 2.6-2.6zm0 6.55a4 4 0 0 0 4.02-4.02 4 4 0 0 0-4.02-4.02 4 4 0 0 0-4.02 4.02 4 4 0 0 0 4.02 4.02zm-4.02-10.57h8.12a2.5 2.5 0 0 1 2.53 2.53v8.12a2.5 2.5 0 0 1-2.53 2.53h-8.12a2.5 2.5 0 0 1-2.53-2.53v-8.12a2.5 2.5 0 0 1 2.53-2.53zm8.12 14.59a3.97 3.97 0 0 0 3.94-3.94v-8.12a3.97 3.97 0 0 0-3.94-3.94h-8.12a3.97 3.97 0 0 0-3.94 3.94v8.12a3.97 3.97 0 0 0 3.94 3.94z"/></defs><use fill="#fff" xlink:href="#a" opacity=".6" transform="translate(-665 -1468)"/></svg>