<svg xmlns="http://www.w3.org/2000/svg" xmlns:xlink="http://www.w3.org/1999/xlink" width="187" height="46"><defs><path id="a" d="M1275.53 1328.08a.42.42 0 0 1-.14-.32c0-.14.04-.24.14-.33.1-.1.18-.14.32-.14s.24.05.33.14c.1.1.14.19.14.33s-.05.23-.14.32c-.1.1-.19.14-.33.14-.14-.04-.23-.09-.32-.14zm-6.94 2.47a2.46 2.46 0 0 0-1.21 2.19c0 .51.1.93.33 1.3.23.38.5.7.88.89.37.23.8.32 1.26.32.46 0 .88-.09 1.25-.32.38-.24.66-.51.89-.89.23-.37.32-.84.32-1.3 0-.51-.09-.93-.32-1.3a2.3 2.3 0 0 0-.89-.89 2.3 2.3 0 0 0-1.25-.33c-.47 0-.89.1-1.26.33zm3.72 5.17v-1.44c-.23.46-.55.83-1.02 1.07-.42.23-.93.37-1.49.37-.56 0-1.07-.14-1.54-.37-.46-.28-.83-.6-1.07-1.07a2.96 2.96 0 0 1-.37-1.59c0-.6.14-1.11.37-1.58a2.89 2.89 0 0 1 2.6-1.44c.57 0 1.03.14 1.46.37.41.23.79.6 1.02 1.07v-3.96h.6v8.57zm3.26 0v-6.05h.56v6.05zm-26.58-.14c-.42-.14-.8-.33-1.02-.56l.27-.47a3.46 3.46 0 0 0 2.19.7c.6 0 1.07-.09 1.35-.28a.94.94 0 0 0 .42-.83c0-.24-.1-.47-.23-.6-.14-.15-.37-.24-.6-.34-.24-.04-.56-.13-.98-.23-.47-.1-.89-.18-1.17-.28a1.98 1.98 0 0 1-.74-.46 1.4 1.4 0 0 1-.33-.93c0-.47.19-.89.6-1.21.43-.33.98-.47 1.73-.47.37 0 .79.05 1.16.14.38.1.7.23.93.42l-.27.46a2.38 2.38 0 0 0-.84-.42c-.33-.09-.65-.13-.98-.13-.56 0-.98.09-1.26.32a.94.94 0 0 0-.42.84c0 .28.1.47.24.65.14.14.37.28.6.33.23.04.56.14.98.23.47.1.84.19 1.16.28.28.1.56.23.75.46.18.24.28.52.28.89 0 .51-.19.88-.6 1.21a3.2 3.2 0 0 1-1.78.47 4.9 4.9 0 0 1-1.44-.2zm6.2-.23c-.29-.28-.43-.7-.43-1.21v-3.96h-1.11v-.51h1.11v-1.3h.56v1.3h1.91v.5h-1.9v3.92c0 .37.08.7.27.88.19.2.47.33.84.33s.7-.1.93-.33l.28.38c-.14.14-.33.23-.56.32-.23.1-.46.1-.7.1-.5 0-.93-.14-1.2-.42zm4.93-.24c-.47-.42-.66-1.07-.66-1.9v-3.54h.56v3.49c0 .7.19 1.2.52 1.53.32.38.83.52 1.49.52.7 0 1.2-.24 1.63-.66.41-.41.6-.97.6-1.72v-3.21h.56v6.1h-.56v-1.3c-.19.41-.51.74-.88.97a2.6 2.6 0 0 1-1.4.38c-.8 0-1.4-.24-1.86-.66zm19.83-4.56a2.48 2.48 0 0 0-1.21 2.19c0 .51.1.93.33 1.3.23.38.5.7.88.89.37.23.8.32 1.26.32.46 0 .88-.09 1.25-.32.38-.24.66-.51.89-.89.23-.37.33-.84.33-1.3 0-.51-.1-.93-.33-1.3a2.3 2.3 0 0 0-.89-.89 2.3 2.3 0 0 0-1.25-.33c-.47 0-.89.1-1.26.33zm-.28 4.84a2.76 2.76 0 0 1-1.07-1.11 2.96 2.96 0 0 1-.37-1.59c0-.6.14-1.11.37-1.58.28-.47.6-.84 1.07-1.12a3.4 3.4 0 0 1 3.07 0 2.96 2.96 0 0 1 1.44 2.7c0 .6-.13 1.12-.36 1.59-.28.46-.61.83-1.08 1.11a2.9 2.9 0 0 1-1.53.38c-.56 0-1.12-.14-1.54-.38z"/><path id="b" d="M1197.73 1328.08a.42.42 0 0 1-.14-.32c0-.14.05-.24.14-.33.1-.1.19-.14.33-.14.13 0 .23.05.32.14.1.1.14.19.14.33s-.05.23-.14.32c-.1.1-.19.14-.32.14-.14-.04-.24-.09-.33-.14zm9.03 2.33c-.33.19-.6.47-.84.8-.18.32-.32.74-.37 1.16h4.66c0-.42-.14-.84-.33-1.17-.19-.32-.47-.6-.84-.79a2.4 2.4 0 0 0-1.16-.28c-.42 0-.8.1-1.12.28zm-.19 4.89a2.97 2.97 0 0 1-1.54-2.65c0-.6.15-1.12.38-1.59a2.63 2.63 0 0 1 2.51-1.49c.56 0 1.03.14 1.5.38.41.28.79.6 1.02 1.07.23.46.37.97.37 1.58v.23h-5.21c0 .47.14.89.37 1.26.23.37.51.65.93.84a2.97 2.97 0 0 0 2.42.04c.37-.13.6-.37.84-.65l.33.38c-.28.32-.61.55-.98.74a3.1 3.1 0 0 1-1.3.23c-.61 0-1.17-.14-1.64-.37zm31.62-4.89c-.33.19-.6.47-.84.8-.19.32-.33.74-.37 1.16h4.65c0-.42-.14-.84-.32-1.17-.19-.32-.47-.6-.84-.79a2.4 2.4 0 0 0-1.16-.28c-.42 0-.8.1-1.12.28zm-.24 4.89a2.98 2.98 0 0 1-1.54-2.65c0-.6.15-1.12.38-1.59.23-.46.6-.83 1.03-1.11.41-.28.93-.38 1.49-.38.55 0 1.02.14 1.48.38.42.28.8.6 1.03 1.07.23.46.37.97.37 1.58v.23h-5.21c0 .47.14.89.37 1.26.23.37.51.65.93.84a2.98 2.98 0 0 0 2.42.04c.37-.13.6-.37.84-.65l.33.38c-.28.32-.6.55-.98.74a3.1 3.1 0 0 1-1.3.23c-.61 0-1.17-.14-1.64-.37zm-40.17.42v-6.05h.55v6.05zm-25.84-2.56c-.28.23-.42.51-.42.88 0 .38.14.7.42.93.27.24.7.33 1.25.33.51 0 .93-.1 1.3-.33.38-.23.61-.55.8-1.02v-1.12h-2.05c-.6 0-1.03.1-1.3.33zm-.38 2.14c-.37-.33-.6-.74-.6-1.26 0-.5.18-.93.56-1.2.37-.33.93-.47 1.72-.47h2.1v-.47c0-.56-.15-.98-.47-1.3-.33-.28-.75-.42-1.35-.42-.42 0-.8.1-1.17.19-.37.14-.7.32-.93.55l-.28-.41a3.46 3.46 0 0 1 2.42-.89c.75 0 1.3.19 1.73.56.42.37.6.93.6 1.67v3.87h-.56v-1.07c-.18.37-.46.65-.83.84-.38.18-.84.28-1.35.28-.66 0-1.21-.14-1.59-.47zm6.99.47v-6.06h.55v1.3c.14-.46.42-.78.84-1.02.38-.23.89-.37 1.45-.37v.56h-.14c-.66 0-1.21.23-1.59.65a2.6 2.6 0 0 0-.56 1.77v3.17zm11.17 0v-8.66h.56v3.81c.19-.41.51-.74.93-.97.42-.24.88-.33 1.44-.33.8 0 1.4.23 1.82.65.42.42.65 1.07.65 1.91v3.54h-.56v-3.5c0-.7-.18-1.2-.51-1.53-.33-.37-.84-.51-1.44-.51-.7 0-1.26.23-1.68.65-.42.42-.6.98-.6 1.72v3.22zm11.87-.42c-.28-.28-.42-.7-.42-1.21v-3.96h-1.11v-.51h1.11v-1.3h.56v1.3h1.91v.5h-1.9v3.92c0 .37.09.7.27.88.19.2.47.33.84.33s.7-.1.93-.33l.28.38a1.6 1.6 0 0 1-.56.32c-.23.1-.46.1-.7.1-.5 0-.93-.14-1.2-.42zm18.53 0c-.28-.28-.42-.7-.42-1.21v-3.96h-1.11v-.51h1.11v-1.3h.56v1.3h1.91v.5h-1.9v3.92c0 .37.09.7.27.88.19.2.47.33.84.33s.7-.1.93-.33l.28.38c-.14.14-.33.23-.56.32-.23.1-.46.1-.7.1-.5 0-.93-.14-1.2-.42zm4.94-.24c-.47-.41-.65-1.07-.65-1.9v-3.54h.56v3.49c0 .7.18 1.2.5 1.54.33.37.85.5 1.5.5.7 0 1.2-.23 1.63-.64.41-.42.6-.98.6-1.73v-3.2h.56v6.09h-.56v-1.3c-.19.42-.51.74-.88.97a2.6 2.6 0 0 1-1.4.38c-.8 0-1.4-.24-1.86-.66zm7.4.66v-6.06h.56v1.3c.14-.46.47-.78.84-1.02.37-.23.88-.37 1.44-.37v.56h-.14c-.65 0-1.2.23-1.58.65a2.6 2.6 0 0 0-.56 1.77v3.17zm-48.47-.38a2.96 2.96 0 0 1-1.44-2.7c0-.6.14-1.11.37-1.58.28-.47.6-.84 1.07-1.07.47-.28.98-.37 1.59-.37.46 0 .93.09 1.35.28.42.18.74.46.98.83l-.42.33a2.85 2.85 0 0 0-.8-.7c-.32-.14-.7-.23-1.07-.23-.46 0-.88.1-1.25.33-.38.23-.65.5-.89.88-.23.37-.32.84-.32 1.35 0 .51.09.93.32 1.35.24.37.51.7.89.88.37.24.79.33 1.25.33.38 0 .75-.1 1.07-.23.33-.14.6-.37.8-.7l.42.33c-.24.37-.56.65-.98.83-.42.19-.84.28-1.35.28a3.98 3.98 0 0 1-1.59-.42zm29.66 0a2.96 2.96 0 0 1-1.44-2.7c0-.6.14-1.11.37-1.58.28-.47.6-.84 1.07-1.07.47-.28.98-.37 1.59-.37.46 0 .93.09 1.34.28.42.18.75.46.98.83l-.42.33a2.89 2.89 0 0 0-.79-.7c-.32-.14-.7-.23-1.07-.23-.47 0-.88.1-1.26.33-.37.23-.65.5-.88.88-.23.37-.33.84-.33 1.35 0 .51.1.93.33 1.35.23.37.51.7.88.88.38.24.8.33 1.26.33.37 0 .75-.1 1.07-.23.33-.14.6-.37.8-.7l.41.33c-.23.37-.56.65-.98.83-.41.19-.83.28-1.34.28a4.2 4.2 0 0 1-1.59-.42z"/><path id="c" d="M1159.92 1330.55a2.47 2.47 0 0 0-1.21 2.19c0 .51.1.93.33 1.3.23.38.51.7.88.89.38.23.8.32 1.26.32.47 0 .88-.09 1.26-.32a2.46 2.46 0 0 0 1.21-2.19c0-.51-.1-.93-.33-1.3a2.3 2.3 0 0 0-.88-.89 2.3 2.3 0 0 0-1.26-.32c-.47 0-.88.09-1.26.32zm3.73 5.17v-1.44c-.23.46-.56.83-1.03 1.07-.42.23-.93.37-1.49.37-.55 0-1.07-.14-1.53-.37-.47-.28-.84-.6-1.07-1.07a2.95 2.95 0 0 1-.38-1.59c0-.6.14-1.11.38-1.58a2.9 2.9 0 0 1 2.6-1.44c.56 0 1.03.14 1.45.37.42.23.79.6 1.02 1.07v-3.96h.6v8.57zm-19.46-2.56c-.28.23-.42.51-.42.88 0 .38.14.7.42.93.28.24.7.33 1.25.33.52 0 .98-.1 1.3-.33.38-.23.61-.55.8-1.02v-1.12h-2.05c-.6 0-1.02.1-1.3.33zm-.38 2.14c-.37-.33-.6-.74-.6-1.26 0-.5.18-.93.56-1.2.37-.33.93-.47 1.72-.47h2.1v-.47c0-.56-.14-.98-.47-1.3-.33-.28-.75-.42-1.35-.42-.42 0-.8.1-1.17.19-.37.13-.7.32-.93.55l-.28-.42a3.46 3.46 0 0 1 2.43-.88c.74 0 1.3.19 1.72.56.42.37.6.93.6 1.67v3.87h-.56v-1.07c-.18.37-.46.65-.83.84-.38.18-.84.28-1.35.28-.65 0-1.21-.14-1.59-.47zm6.99.47v-6.06h.56v1.3c.18-.41.5-.74.93-.97.42-.23.88-.37 1.49-.37.7-.05 1.3.18 1.72.6.42.42.65 1.07.65 1.91v3.54h-.56v-3.5c0-.7-.18-1.2-.5-1.53-.34-.37-.85-.51-1.45-.51-.7 0-1.26.23-1.68.65-.42.42-.6.98-.6 1.72v3.22z"/><path id="d" d="M1119.98 1328.22c.14 0 .23-.04.32-.14.1-.09.14-.18.14-.32a.43.43 0 0 0-.14-.33.43.43 0 0 0-.32-.14.43.43 0 0 0-.33.14c-.1.1-.14.19-.14.33s.05.23.14.32c.1.05.19.1.33.14zm-18.95 2c.46 0 .88.1 1.25.33.38.19.66.51.89.89.23.37.32.79.32 1.3a2.46 2.46 0 0 1-1.2 2.19c-.38.23-.75.28-1.22.28-.46 0-.88-.1-1.25-.33a2.3 2.3 0 0 1-.89-.88c-.23-.38-.32-.8-.32-1.3 0-.47.09-.94.32-1.31.19-.42.47-.7.84-.84.37-.23.8-.32 1.26-.32zm3.02 5.5v-8.57h-.6v3.96c-.24-.47-.6-.84-1.03-1.07a2.89 2.89 0 0 0-1.44-.37 2.9 2.9 0 0 0-2.6 1.44c-.24.47-.38.98-.38 1.58 0 .6.1 1.12.37 1.59.24.46.6.79 1.07 1.07.47.23.98.37 1.54.37s1.07-.14 1.49-.37c.47-.24.8-.6 1.02-1.07v1.44zm16.2 0v-6.05h-.55v6.05zm-11.3-5.59c.41 0 .83.1 1.16.28.37.19.65.47.83.8.19.32.33.74.33 1.16h-4.66c.05-.42.19-.84.38-1.17.23-.32.5-.6.83-.79.33-.18.75-.28 1.12-.28zm-1.4 5.26c.46.24 1.02.38 1.62.38.47 0 .94-.1 1.4-.33.37-.19.7-.42.98-.75l-.33-.37c-.23.28-.46.51-.83.65a2.98 2.98 0 0 1-2.42-.05c-.43-.18-.7-.46-.94-.83-.23-.37-.37-.8-.37-1.26h5.21l-.09-.14c0-.6-.14-1.11-.37-1.58-.23-.47-.6-.8-1.02-1.07a3.22 3.22 0 0 0-2.98 0c-.42.28-.8.65-1.03 1.12a3.44 3.44 0 0 0 .05 3.16c.28.47.65.84 1.11 1.07zm6.51.19c.42.14.89.19 1.45.19a3.2 3.2 0 0 0 1.77-.47c.41-.33.6-.7.6-1.21 0-.37-.1-.65-.28-.88a1.55 1.55 0 0 0-.74-.47c-.33-.1-.7-.19-1.17-.28-.42-.1-.74-.19-.98-.23a1.27 1.27 0 0 1-.6-.33 1 1 0 0 1-.23-.65c0-.37.14-.65.42-.84.28-.23.7-.32 1.25-.32.33 0 .66.04.98.14.33.09.6.23.84.41l.28-.46a2.45 2.45 0 0 0-.93-.42c-.38-.1-.8-.14-1.17-.14-.74 0-1.3.14-1.72.47-.42.32-.6.74-.6 1.2 0 .43.13.7.32.94.19.18.47.37.75.46.28.1.7.19 1.16.28l.98.24c.23.09.46.18.6.32.14.14.24.37.24.6 0 .38-.14.66-.42.84-.28.19-.75.28-1.35.28a3.46 3.46 0 0 1-2.2-.7l-.27.47c.23.23.6.42 1.02.56zm17.65.19v-3.22c0-.74.18-1.3.6-1.72.42-.42.98-.65 1.68-.65.6 0 1.12.14 1.44.51.33.33.52.84.52 1.54v3.49h.55v-3.54c0-.84-.23-1.49-.65-1.9a2.18 2.18 0 0 0-1.72-.61c-.6 0-1.07.14-1.49.37a2.1 2.1 0 0 0-.93.98v-1.3h-.56v6.05zm-6.33-5.6c.46 0 .88.15 1.25.33a2.3 2.3 0 0 1 1.21 2.1 2.31 2.31 0 0 1-1.2 2.1c-.38.18-.8.27-1.26.32a2.8 2.8 0 0 1-1.26-.33 2.3 2.3 0 0 1-1.21-2.1c0-.46.1-.87.32-1.25a2.53 2.53 0 0 1 2.15-1.16zm-1.5 7.6a5.9 5.9 0 0 0 1.59.23c.98 0 1.72-.23 2.19-.7.51-.46.74-1.2.74-2.23v-5.36h-.65v1.35c-.23-.42-.56-.79-1.02-1.02a3.07 3.07 0 0 0-1.5-.37 3.4 3.4 0 0 0-1.53.37c-.47.23-.8.56-1.07 1.02a3.42 3.42 0 0 0 0 3.08c.23.46.6.83 1.07 1.07.47.23.98.37 1.54.37s1.07-.14 1.49-.37c.42-.24.79-.6 1.02-1.03v1.03c0 .79-.19 1.4-.56 1.77-.37.37-.97.56-1.77.56-.46 0-.93-.1-1.35-.24a2.75 2.75 0 0 1-1.07-.65l-.32.42c.32.28.7.51 1.2.7z"/><path id="e" d="M1270.08 1313.23l-7.08-8.9 6.43-6.04h-1.82l-9.59 8.75V1292h-1.44v21.23h1.44v-4.42l3.91-3.54 6.38 7.96zm-60.9.05v-8.76c0-2.04-.56-3.63-1.63-4.7-1.07-1.07-2.56-1.63-4.47-1.63-1.4 0-2.56.28-3.58.84a5.36 5.36 0 0 0-2.28 2.38V1292h-1.45v21.28h1.45v-7.96c0-1.77.5-3.17 1.53-4.24a5.4 5.4 0 0 1 4.15-1.58c1.53 0 2.74.41 3.58 1.3.84.84 1.26 2.14 1.26 3.82v8.66zm27.1 0V1292h-1.44v21.28zm-19.37-1.54c1.07 1.07 2.6 1.63 4.56 1.63 1.3 0 2.47-.28 3.45-.88.98-.61 1.68-1.4 2.19-2.47v3.21h1.4v-14.94h-1.4v7.91c0 1.77-.51 3.17-1.5 4.24a5.16 5.16 0 0 1-4 1.58c-1.53 0-2.79-.42-3.63-1.3-.88-.84-1.3-2.14-1.3-3.82v-8.61h-1.44v8.75c0 2.05.55 3.63 1.67 4.7zm-38.27.33a10.7 10.7 0 0 0 5.3 1.35c1.45 0 2.8-.24 4.01-.7a8.04 8.04 0 0 0 3.12-2.1l-.93-.93a8.31 8.31 0 0 1-6.15 2.42 9.5 9.5 0 0 1-4.56-1.16 8.2 8.2 0 0 1-3.26-3.17 8.7 8.7 0 0 1-1.16-4.51 8.7 8.7 0 0 1 1.16-4.52 8.2 8.2 0 0 1 3.26-3.16 8.88 8.88 0 0 1 4.56-1.17c2.47 0 4.57.8 6.15 2.38l.93-.94a8.02 8.02 0 0 0-3.12-2.09c-1.2-.47-2.56-.7-4-.7-1.96 0-3.73.42-5.31 1.3a9.63 9.63 0 0 0-3.73 3.64 10.36 10.36 0 0 0-1.35 5.21c0 1.91.47 3.68 1.35 5.22a9.63 9.63 0 0 0 3.73 3.63zm64.3.74c1.11.37 2.23.56 3.4.6 1.9 0 3.35-.37 4.37-1.11a3.48 3.48 0 0 0 1.54-2.98c0-.93-.23-1.68-.75-2.19a4.21 4.21 0 0 0-1.81-1.16c-.75-.23-1.68-.42-2.84-.65-1.07-.24-1.91-.42-2.47-.61a3.9 3.9 0 0 1-1.49-.84c-.42-.37-.6-.93-.6-1.58 0-.84.37-1.54 1.07-2.05.7-.51 1.77-.79 3.16-.79a7.3 7.3 0 0 1 4.52 1.35l.65-1.16a6.5 6.5 0 0 0-2.28-1.07 9.73 9.73 0 0 0-2.84-.42c-1.82 0-3.21.37-4.2 1.16a3.66 3.66 0 0 0-1.48 2.93c0 .98.28 1.73.79 2.28a4.2 4.2 0 0 0 1.86 1.22c.75.27 1.72.46 2.89.7 1.02.18 1.81.41 2.37.55.56.14 1.07.42 1.45.8.42.37.6.83.6 1.48a2.4 2.4 0 0 1-1.07 2.05c-.74.51-1.86.75-3.35.75a9.4 9.4 0 0 1-3.03-.51 8.1 8.1 0 0 1-2.37-1.3l-.65 1.16c.6.55 1.49 1.02 2.56 1.4zm34.73-6.8h5.12v2.8a5.11 5.11 0 0 1-5.17 3.35c-1.3 0-2.32-.28-3.07-.84a2.92 2.92 0 0 1-1.07-2.33c0-.93.32-1.67.98-2.18.7-.52 1.72-.8 3.21-.8zm-4.2 6.24c.99.8 2.3 1.17 3.97 1.17a7.2 7.2 0 0 0 3.3-.75 4.7 4.7 0 0 0 2.1-2.05v2.66h1.4v-9.5c0-1.86-.52-3.26-1.5-4.19-.97-.93-2.42-1.4-4.28-1.3-1.16 0-2.23.18-3.3.55a8.12 8.12 0 0 0-2.7 1.59l.7 1.02a6.9 6.9 0 0 1 2.32-1.4 8.28 8.28 0 0 1 2.84-.5c1.44 0 2.56.32 3.3 1.06.75.7 1.12 1.77 1.12 3.17v1.21h-5.12c-1.9 0-3.35.37-4.23 1.16a3.86 3.86 0 0 0-1.36 3.03c0 1.26.47 2.28 1.45 3.07z"/><path id="f" d="M1143.35 1294.65c.32 0 .6-.09.84-.32.23-.24.32-.51.32-.84a1.12 1.12 0 0 0-1.16-1.16 1.12 1.12 0 0 0-1.17 1.16 1.12 1.12 0 0 0 1.16 1.16zm.74 18.58v-14.94h-1.44v14.94zm-7.77.05V1292h-1.45v21.28zm-19.42-1.54c1.07 1.07 2.61 1.63 4.57 1.63 1.3 0 2.46-.28 3.44-.88.98-.61 1.68-1.4 2.19-2.47v3.21h1.4v-14.94h-1.4v7.91c0 1.77-.51 3.17-1.49 4.24a5.16 5.16 0 0 1-4 1.58c-1.54 0-2.8-.42-3.64-1.3-.88-.84-1.3-2.14-1.3-3.82v-8.61h-1.44v8.75c0 2.05.56 3.63 1.67 4.7zm-13.6 1.68c1.82 0 3.13-.51 4.06-1.54.93-1.02 1.4-2.51 1.4-4.52v-14.15h-8.85v1.3h7.4v12.85c0 1.59-.32 2.8-1.02 3.54-.65.8-1.63 1.17-2.98 1.17a5 5 0 0 1-2.47-.65 5.7 5.7 0 0 1-1.96-1.87l-.88.98a6.18 6.18 0 0 0 2.28 2.1c.93.5 1.96.79 3.03.79zm51.32-7.4h5.12v2.79a5.03 5.03 0 0 1-5.17 3.35c-1.3 0-2.33-.28-3.07-.84a2.92 2.92 0 0 1-1.08-2.33c0-.93.33-1.67.98-2.18.7-.52 1.73-.8 3.22-.8zm-4.2 6.23c.98.8 2.29 1.17 3.96 1.17 1.3 0 2.38-.28 3.3-.75a4.7 4.7 0 0 0 2.1-2.05v2.66h1.4v-9.5c0-1.86-.51-3.26-1.49-4.2-.98-.92-2.42-1.39-4.28-1.3-1.17 0-2.24.2-3.3.56a8.1 8.1 0 0 0-2.71 1.59l.7 1.02a6.9 6.9 0 0 1 2.33-1.4 8.29 8.29 0 0 1 2.84-.5c1.44 0 2.56.32 3.3 1.06.75.7 1.12 1.77 1.12 3.17v1.21h-5.12c-1.91 0-3.35.37-4.24 1.16a3.86 3.86 0 0 0-1.35 3.03c0 1.26.47 2.28 1.44 3.07z"/></defs><use fill="#fff" xlink:href="#a" transform="translate(-1098 -1292)"/><use fill="#fff" xlink:href="#b" transform="translate(-1098 -1292)"/><use fill="#fff" xlink:href="#c" transform="translate(-1098 -1292)"/><use fill="#fff" xlink:href="#d" transform="translate(-1098 -1292)"/><use fill="#fff" xlink:href="#e" transform="translate(-1098 -1292)"/><use fill="#fff" xlink:href="#f" transform="translate(-1098 -1292)"/></svg>