<svg xmlns="http://www.w3.org/2000/svg" xmlns:xlink="http://www.w3.org/1999/xlink" width="21" height="16"><defs><path id="a" d="M763.61 1473.73l4.42 2.6-4.42 2.46zm-.67 6.8h.03a.6.6 0 0 0 .31-.08l6.38-3.56a.67.67 0 0 0-.02-1.12l-6.33-3.7a.61.61 0 0 0-.68 0c-.2.11-.3.33-.3.55v7.26c0 .24.12.45.33.57a.6.6 0 0 0 .28.07zm-4.43 1.92a2 2 0 0 1-1.47-.64 3.85 3.85 0 0 1-.59-1.66v-.12a31.1 31.1 0 0 1-.2-3.22v-1.58c.01-1.1.08-2.22.2-3.32.07-.61.27-1.2.6-1.72.35-.42.86-.66 1.4-.67h.12c2.64-.2 6.67-.23 6.74-.23.07 0 4.1.03 6.75.23h.1c.55 0 1.06.25 1.4.66a4 4 0 0 1 .61 1.79c.13 1.08.2 2.17.19 3.26v1.57c0 1.1-.07 2.2-.2 3.29a3.6 3.6 0 0 1-.63 1.76c-.34.4-.84.65-1.37.66h-.12a111 111 0 0 1-6.73.2 122.19 122.19 0 0 1-6.8-.26zm.15 1.35c1.55.13 6.42.2 6.65.2.17 0 4.16 0 6.82-.3h.12a3.1 3.1 0 0 0 2.24-1.07c.54-.71.86-1.56.95-2.45.13-1.14.2-2.29.2-3.44v-1.58c0-1.14-.07-2.27-.2-3.4a5.1 5.1 0 0 0-.91-2.45 3.21 3.21 0 0 0-2.27-1.08h-.11c-2.74-.2-6.8-.23-6.84-.23-.04 0-4.11.03-6.8.3h-.11a3.1 3.1 0 0 0-2.25 1.07 5.02 5.02 0 0 0-.95 2.45c-.12 1.14-.19 2.3-.2 3.44v1.57c.01 1.14.08 2.28.2 3.41.09.89.4 1.73.91 2.45a3.3 3.3 0 0 0 2.31 1.08c.08 0 .16 0 .24.03z"/></defs><use fill="#fff" xlink:href="#a" opacity=".6" transform="translate(-755 -1468)"/></svg>